<svg width="21" height="20" viewBox="0 0 21 20" fill="none" xmlns="http://www.w3.org/2000/svg">
<path d="M3.50001 8.33335L2.88138 8.92251L2.26276 8.33335L2.88138 7.74418L3.50001 8.33335ZM18.375 15C18.375 15.221 18.2828 15.433 18.1187 15.5893C17.9546 15.7456 17.7321 15.8333 17.5 15.8333C17.2679 15.8333 17.0454 15.7456 16.8813 15.5893C16.7172 15.433 16.625 15.221 16.625 15H18.375ZM7.25638 13.0892L2.88138 8.92251L4.11863 7.74418L8.49363 11.9108L7.25638 13.0892ZM2.88138 7.74418L7.25638 3.57751L8.49363 4.75585L4.11863 8.92251L2.88138 7.74418ZM3.50001 7.50001H12.25V9.16668H3.50001V7.50001ZM18.375 13.3333V15H16.625V13.3333H18.375ZM12.25 7.50001C13.8745 7.50001 15.4324 8.1146 16.581 9.20856C17.7297 10.3025 18.375 11.7863 18.375 13.3333H16.625C16.625 12.2283 16.1641 11.1685 15.3436 10.3871C14.5231 9.60567 13.4103 9.16668 12.25 9.16668V7.50001Z" fill="#FF8616"/>
</svg>
